<?xml version="1.0" encoding="utf-8"?>
<svg version="1.1" xmlns:xlink="http://www.w3.org/1999/xlink" width="30px" height="26px" xmlns="http://www.w3.org/2000/svg">
  <g transform="matrix(1 0 0 1 -40 -111 )">
    <path d="M 15.7366071428571 25.6953125  C 15.5357142857143 25.8984375  15.2901785714286 26  15 26  C 14.7098214285714 26  14.4642857142857 25.8984375  14.2633928571429 25.6953125  L 3.81696428571429 15.5052083333333  C 3.70535714285714 15.4149305555556  3.55189732142857 15.2682291666667  3.35658482142857 15.0651041666667  C 3.16127232142857 14.8619791666667  2.8515625 14.4924045138889  2.42745535714286 13.9563802083333  C 2.00334821428571 13.4203559027778  1.62388392857143 12.8702256944444  1.2890625 12.3059895833333  C 0.954241071428571 11.7417534722222  0.655691964285714 11.0590277777778  0.393415178571429 10.2578125  C 0.131138392857143 9.45659722222222  0 8.67795138888889  0 7.921875  C 0 5.43923611111111  0.708705357142857 3.49826388888889  2.12611607142857 2.09895833333333  C 3.54352678571429 0.699652777777777  5.50223214285714 0  8.00223214285714 0  C 8.69419642857143 0  9.40011160714286 0.121310763888887  10.1199776785714 0.363932291666668  C 10.83984375 0.606553819444442  11.5094866071429 0.933810763888887  12.12890625 1.345703125  C 12.7483258928571 1.75759548611111  13.28125 2.14409722222222  13.7276785714286 2.50520833333333  C 14.1741071428571 2.86631944444444  14.5982142857143 3.25  15 3.65625  C 15.4017857142857 3.25  15.8258928571429 2.86631944444444  16.2723214285714 2.50520833333333  C 16.71875 2.14409722222222  17.2516741071429 1.75759548611111  17.87109375 1.345703125  C 18.4905133928571 0.933810763888887  19.16015625 0.606553819444442  19.8800223214286 0.363932291666668  C 20.5998883928571 0.121310763888887  21.3058035714286 0  21.9977678571429 0  C 24.4977678571429 0  26.4564732142857 0.699652777777777  27.8738839285714 2.09895833333333  C 29.2912946428571 3.49826388888889  30 5.43923611111111  30 7.921875  C 30 10.4157986111111  28.7220982142857 12.9548611111111  26.1662946428571 15.5390625  L 15.7366071428571 25.6953125  Z " fill-rule="nonzero" fill="#aaaaaa" stroke="none" transform="matrix(1 0 0 1 40 111 )" />
  </g>
</svg>