<?xml version="1.0" encoding="utf-8"?>
<svg version="1.1" xmlns:xlink="http://www.w3.org/1999/xlink" width="20px" height="20px" xmlns="http://www.w3.org/2000/svg">
  <g transform="matrix(1 0 0 1 -335 -429 )">
    <path d="M 12.265625 12.265625  C 13.3193108974359 11.2119391025641  13.8461538461538 9.94391025641025  13.8461538461538 8.46153846153848  C 13.8461538461538 6.97916666666665  13.3193108974359 5.71113782051284  12.265625 4.65745192307691  C 11.2119391025641 3.60376602564102  9.94391025641025 3.07692307692309  8.46153846153846 3.07692307692309  C 6.97916666666666 3.07692307692309  5.71113782051282 3.60376602564102  4.65745192307693 4.65745192307691  C 3.60376602564103 5.71113782051284  3.07692307692307 6.97916666666665  3.07692307692307 8.46153846153848  C 3.07692307692307 9.94391025641025  3.60376602564103 11.2119391025641  4.65745192307693 12.265625  C 5.71113782051282 13.3193108974359  6.97916666666666 13.8461538461539  8.46153846153846 13.8461538461539  C 9.94391025641025 13.8461538461539  11.2119391025641 13.3193108974359  12.265625 12.265625  Z M 19.5552884615385 17.3798076923077  C 19.8517628205128 17.676282051282  20 18.036858974359  20 18.4615384615385  C 20 18.886217948718  19.8497596153846 19.2487980769231  19.5492788461539 19.5492788461539  C 19.2487980769231 19.8497596153846  18.8862179487179 20  18.4615384615385 20  C 18.0288461538461 20  17.6682692307692 19.8477564102564  17.3798076923077 19.5432692307692  L 13.2572115384615 15.4326923076923  C 11.8229166666667 16.426282051282  10.224358974359 16.9230769230769  8.46153846153846 16.9230769230769  C 7.31570512820513 16.9230769230769  6.21995192307693 16.7007211538461  5.17427884615385 16.2560096153846  C 4.12860576923077 15.8112980769231  3.22716346153846 15.2103365384615  2.46995192307693 14.453125  C 1.71274038461538 13.6959134615385  1.11177884615385 12.7944711538461  0.667067307692309 11.7487980769231  C 0.222355769230774 10.703125  0 9.60737179487178  0 8.46153846153848  C 0 7.31570512820513  0.222355769230774 6.21995192307691  0.667067307692309 5.17427884615386  C 1.11177884615385 4.12860576923076  1.71274038461538 3.22716346153848  2.46995192307693 2.46995192307691  C 3.22716346153846 1.71274038461538  4.12860576923077 1.11177884615386  5.17427884615385 0.667067307692287  C 6.21995192307693 0.222355769230762  7.31570512820513 0  8.46153846153846 0  C 9.6073717948718 0  10.703125 0.222355769230762  11.7487980769231 0.667067307692287  C 12.7944711538462 1.11177884615386  13.6959134615385 1.71274038461538  14.453125 2.46995192307691  C 15.2103365384615 3.22716346153848  15.8112980769231 4.12860576923076  16.2560096153846 5.17427884615386  C 16.7007211538461 6.21995192307691  16.9230769230769 7.31570512820513  16.9230769230769 8.46153846153848  C 16.9230769230769 10.224358974359  16.4262820512821 11.8229166666667  15.4326923076923 13.2572115384615  L 19.5552884615385 17.3798076923077  Z " fill-rule="nonzero" fill="#555555" stroke="none" transform="matrix(1 0 0 1 335 429 )" />
  </g>
</svg>