<?xml version="1.0" encoding="utf-8"?>
<svg version="1.1" xmlns:xlink="http://www.w3.org/1999/xlink" width="163px" height="50px" xmlns="http://www.w3.org/2000/svg">
  <defs>
    <mask fill="white" id="clip138">
      <path d="M 158 50  C 160.761423749154 50  163 47.7614237491539  163 45  L 163 5  C 163 2.23857625084602  160.761423749154 0  158 0  L 12.760147601476 0  C 9.99872385232201 0  7.76014760147601 2.23857625084602  8 5  L 8 16.5295097569706  L 0 25.0714285714286  L 8 32.5295097569706  L 8 45  C 7.76014760147601 47.7614237491539  9.99872385232201 50  12.760147601476 50  L 158 50  Z " fill-rule="evenodd" />
    </mask>
  </defs>
  <g transform="matrix(1 0 0 1 -60 -54 )">
    <path d="M 158 50  C 160.761423749154 50  163 47.7614237491539  163 45  L 163 5  C 163 2.23857625084602  160.761423749154 0  158 0  L 12.760147601476 0  C 9.99872385232201 0  7.76014760147601 2.23857625084602  8 5  L 8 16.5295097569706  L 0 25.0714285714286  L 8 32.5295097569706  L 8 45  C 7.76014760147601 47.7614237491539  9.99872385232201 50  12.760147601476 50  L 158 50  Z " fill-rule="nonzero" fill="#ffffff" stroke="none" transform="matrix(1 0 0 1 60 54 )" />
    <path d="M 158 50  C 160.761423749154 50  163 47.7614237491539  163 45  L 163 5  C 163 2.23857625084602  160.761423749154 0  158 0  L 12.760147601476 0  C 9.99872385232201 0  7.76014760147601 2.23857625084602  8 5  L 8 16.5295097569706  L 0 25.0714285714286  L 8 32.5295097569706  L 8 45  C 7.76014760147601 47.7614237491539  9.99872385232201 50  12.760147601476 50  L 158 50  Z " stroke-width="2" stroke="#d7d7d7" fill="none" transform="matrix(1 0 0 1 60 54 )" mask="url(#clip138)" />
  </g>
</svg>