<?xml version="1.0" encoding="utf-8"?>
<svg version="1.1" xmlns:xlink="http://www.w3.org/1999/xlink" width="20px" height="18px" xmlns="http://www.w3.org/2000/svg">
  <g transform="matrix(1 0 0 1 -335 -510 )">
    <path d="M 345 512.471751442127  C 343 510.5  341 510.5  340 510.5  C 338.2 510.5  335.5 512.127586206897  335.5 515.22  C 335.5 522.259147597914  345 527.409743401266  345 527.409743401266  C 345 527.409743401266  354.5 522.259147597914  354.5 515.22  C 354.5 512.127586206897  351.8 510.5  350 510.5  C 349 510.5  347 510.5  345 512.471751442127  Z " fill-rule="nonzero" fill="#f2f2f2" stroke="none" />
    <path d="M 345 511.8  C 343 510  341 510  340 510  C 338 510  335 511.8  335 515.22  C 335 522.6  345 528  345 528  C 345 528  355 522.6  355 515.22  C 355 511.8  352 510  350 510  C 349 510  347 510  345 511.8  Z M 345 513.143502884254  C 347 511  349 511  350 511  C 351.6 511  354 512.455172413793  354 515.22  C 354 521.918295195828  345 526.819486802532  345 526.819486802532  C 345 526.819486802532  336 521.918295195828  336 515.22  C 336 512.455172413793  338.4 511  340 511  C 341 511  343 511  345 513.143502884254  Z " fill-rule="nonzero" fill="#d7d7d7" stroke="none" />
  </g>
</svg>