<?xml version="1.0" encoding="utf-8"?>
<svg version="1.1" xmlns:xlink="http://www.w3.org/1999/xlink" width="20px" height="18px" xmlns="http://www.w3.org/2000/svg">
  <g transform="matrix(1 0 0 1 -335 -632 )">
    <path d="M 345 634.471751442127  C 343 632.5  341 632.5  340 632.5  C 338.2 632.5  335.5 634.127586206897  335.5 637.22  C 335.5 644.259147597914  345 649.409743401266  345 649.409743401266  C 345 649.409743401266  354.5 644.259147597914  354.5 637.22  C 354.5 634.127586206897  351.8 632.5  350 632.5  C 349 632.5  347 632.5  345 634.471751442127  Z " fill-rule="nonzero" fill="#ffffff" stroke="none" />
    <path d="M 345 633.8  C 343 632  341 632  340 632  C 338 632  335 633.8  335 637.22  C 335 644.6  345 650  345 650  C 345 650  355 644.6  355 637.22  C 355 633.8  352 632  350 632  C 349 632  347 632  345 633.8  Z M 345 635.143502884254  C 347 633  349 633  350 633  C 351.6 633  354 634.455172413793  354 637.22  C 354 643.918295195828  345 648.819486802532  345 648.819486802532  C 345 648.819486802532  336 643.918295195828  336 637.22  C 336 634.455172413793  338.4 633  340 633  C 341 633  343 633  345 635.143502884254  Z " fill-rule="nonzero" fill="#e4e4e4" stroke="none" />
  </g>
</svg>