<?xml version="1.0" encoding="utf-8"?>
<svg version="1.1" xmlns:xlink="http://www.w3.org/1999/xlink" width="13px" height="16px" xmlns="http://www.w3.org/2000/svg">
  <g transform="matrix(1 0 0 1 -20 -391 )">
    <path d="M 12.913671875 11.5677083333333  C 12.9712239583333 12.0920138888889  13 12.6493055555556  13 13.2395833333333  C 13 13.9965277777778  12.7884114583333 14.6458333333333  12.365234375 15.1875  C 11.9420572916667 15.7291666666667  11.4325520833333 16  10.83671875 16  L 2.16328125 16  C 1.56744791666667 16  1.05794270833333 15.7291666666667  0.634765625 15.1875  C 0.211588541666667 14.6458333333333  0 13.9965277777778  0 13.2395833333333  C 0 12.6493055555556  0.0287760416666667 12.0920138888889  0.0863281250000001 11.5677083333333  C 0.143880208333333 11.0434027777778  0.250520833333333 10.515625  0.40625 9.984375  C 0.561979166666667 9.453125  0.760026041666667 8.99826388888889  1.000390625 8.61979166666667  C 1.24075520833333 8.24131944444444  1.558984375 7.93229166666667  1.955078125 7.69270833333333  C 2.351171875 7.453125  2.80651041666667 7.33333333333333  3.32109375 7.33333333333333  C 4.20807291666667 8.22222222222222  5.26770833333333 8.66666666666667  6.5 8.66666666666667  C 7.73229166666667 8.66666666666667  8.79192708333333 8.22222222222222  9.67890625 7.33333333333333  C 10.1934895833333 7.33333333333333  10.648828125 7.453125  11.044921875 7.69270833333333  C 11.441015625 7.93229166666667  11.7592447916667 8.24131944444444  11.999609375 8.61979166666667  C 12.2399739583333 8.99826388888889  12.4380208333333 9.453125  12.59375 9.984375  C 12.7494791666667 10.515625  12.8561197916667 11.0434027777778  12.913671875 11.5677083333333  Z M 9.257421875 1.171875  C 10.019140625 1.953125  10.4 2.89583333333333  10.4 4  C 10.4 5.10416666666667  10.019140625 6.046875  9.257421875 6.828125  C 8.495703125 7.609375  7.5765625 8  6.5 8  C 5.4234375 8  4.504296875 7.609375  3.742578125 6.828125  C 2.980859375 6.046875  2.6 5.10416666666667  2.6 4  C 2.6 2.89583333333333  2.980859375 1.953125  3.742578125 1.171875  C 4.504296875 0.390625  5.4234375 0  6.5 0  C 7.5765625 0  8.495703125 0.390625  9.257421875 1.171875  Z " fill-rule="nonzero" fill="#aaaaaa" stroke="none" transform="matrix(1 0 0 1 20 391 )" />
  </g>
</svg>