<?xml version="1.0" encoding="utf-8"?>
<svg version="1.1" xmlns:xlink="http://www.w3.org/1999/xlink" width="63px" height="20px" xmlns="http://www.w3.org/2000/svg">
  <g transform="matrix(1 0 0 1 -90 -285 )">
    <path d="M 97.8910524493997 285.5  C 97.8910524493997 285.5  96.2786950797477 285.755929741215  96.2786950797477 285.755929741215  C 96.2786950797477 285.755929741215  90.5504023620086 295  90.5504023620086 295  C 90.5504023620086 295  96.2786950797477 304.244070258785  96.2786950797477 304.244070258785  C 96.2786950797477 304.244070258785  97.8910524493997 304.5  97.8910524493997 304.5  C 97.8910524493997 304.5  152.5 304.5  152.5 304.5  C 152.5 304.5  152.5 285.5  152.5 285.5  C 152.5 285.5  97.8910524493997 285.5  97.8910524493997 285.5  Z " fill-rule="nonzero" fill="#f2f2f2" stroke="none" />
    <path d="M 97.8910524493997 285.5  C 97.8910524493997 285.5  96.2786950797477 285.755929741215  96.2786950797477 285.755929741215  C 96.2786950797477 285.755929741215  90.5504023620086 295  90.5504023620086 295  C 90.5504023620086 295  96.2786950797477 304.244070258785  96.2786950797477 304.244070258785  C 96.2786950797477 304.244070258785  97.8910524493997 304.5  97.8910524493997 304.5  C 97.8910524493997 304.5  152.5 304.5  152.5 304.5  C 152.5 304.5  152.5 285.5  152.5 285.5  C 152.5 285.5  97.8910524493997 285.5  97.8910524493997 285.5  Z " stroke-width="1" stroke="#e4e4e4" fill="none" />
  </g>
</svg>