<?xml version="1.0" encoding="utf-8"?><svg version="1.1" xmlns:xlink="http://www.w3.org/1999/xlink" width="10px" height="10px" xmlns="http://www.w3.org/2000/svg"><g transform="matrix(1 0 0 1 -139 -290 )"><path d="M 144 290  C 146.8 290  149 292.2  149 295  C 149 297.8  146.8 300  144 300  C 141.2 300  139 297.8  139 295  C 139 292.2  141.2 290  144 290  Z " fill-rule="nonzero" fill="#ffffff" stroke="none" /><path d="M 144 290.5  C 146.52 290.5  148.5 292.48  148.5 295  C 148.5 297.52  146.52 299.5  144 299.5  C 141.48 299.5  139.5 297.52  139.5 295  C 139.5 292.48  141.48 290.5  144 290.5  Z " stroke-width="1" stroke="#e4e4e4" fill="none" /></g></svg>