<?xml version="1.0" encoding="utf-8"?>
<svg version="1.1" xmlns:xlink="http://www.w3.org/1999/xlink" width="40px" height="40px" xmlns="http://www.w3.org/2000/svg">
  <g transform="matrix(1 0 0 1 -298 -193 )">
    <path d="M 318 193  C 329.2 193  338 201.8  338 213  C 338 224.2  329.2 233  318 233  C 306.8 233  298 224.2  298 213  C 298 201.8  306.8 193  318 193  Z " fill-rule="nonzero" fill="#ffffff" stroke="none" />
    <path d="M 318 193.5  C 328.92 193.5  337.5 202.08  337.5 213  C 337.5 223.92  328.92 232.5  318 232.5  C 307.08 232.5  298.5 223.92  298.5 213  C 298.5 202.08  307.08 193.5  318 193.5  Z " stroke-width="1" stroke="#ffffff" fill="none" />
  </g>
</svg>