<?xml version="1.0" encoding="utf-8"?>
<svg version="1.1" xmlns:xlink="http://www.w3.org/1999/xlink" width="375px" height="374px" xmlns="http://www.w3.org/2000/svg">
  <defs>
    <mask fill="white" id="clip129">
      <path d="M 0 242.806282722513  L 23.4986945169713 193.853403141361  L 94.9738903394256 162  L 135.117493472585 162  L 194 127.277486910995  L 194 116.507853403141  L 242.819843342037 93.9895287958115  L 290.79634464752 68.5340314136126  L 344.647519582245 0  L 375 22.5183246073298  L 369.125326370757 167.418848167539  L 361.292428198433 167.418848167539  L 375 186.020942408377  L 339.751958224543 193.853403141361  L 328.981723237598 213.434554973822  L 339.751958224543 236.931937172775  L 321.148825065274 247.701570680628  L 316.253263707572 276  L 339.751958224543 276  L 316.253263707572 345.607329842932  L 321.148825065274 359.314136125654  L 308.420365535248 374  L 290.79634464752 374  L 274.151436031332 345.607329842932  L 257.506527415144 359.314136125654  L 230.09138381201 333.858638743456  L 211.488250652742 345.607329842932  L 171.344647519582 306.44502617801  L 152.741514360313 328.96335078534  L 135.117493472585 322.109947643979  L 122 345.607329842932  L 122 328.96335078534  L 75.3916449086162 368.125654450262  L 15.6657963446475 314.277486910995  L 0 242.806282722513  Z " fill-rule="evenodd" />
    </mask>
  </defs>
  <g transform="matrix(1 0 0 1 0 -44 )">
    <path d="M 0 242.806282722513  L 23.4986945169713 193.853403141361  L 94.9738903394256 162  L 135.117493472585 162  L 194 127.277486910995  L 194 116.507853403141  L 242.819843342037 93.9895287958115  L 290.79634464752 68.5340314136126  L 344.647519582245 0  L 375 22.5183246073298  L 369.125326370757 167.418848167539  L 361.292428198433 167.418848167539  L 375 186.020942408377  L 339.751958224543 193.853403141361  L 328.981723237598 213.434554973822  L 339.751958224543 236.931937172775  L 321.148825065274 247.701570680628  L 316.253263707572 276  L 339.751958224543 276  L 316.253263707572 345.607329842932  L 321.148825065274 359.314136125654  L 308.420365535248 374  L 290.79634464752 374  L 274.151436031332 345.607329842932  L 257.506527415144 359.314136125654  L 230.09138381201 333.858638743456  L 211.488250652742 345.607329842932  L 171.344647519582 306.44502617801  L 152.741514360313 328.96335078534  L 135.117493472585 322.109947643979  L 122 345.607329842932  L 122 328.96335078534  L 75.3916449086162 368.125654450262  L 15.6657963446475 314.277486910995  L 0 242.806282722513  Z " fill-rule="nonzero" fill="#ffffff" stroke="none" transform="matrix(1 0 0 1 0 44 )" />
    <path d="M 0 242.806282722513  L 23.4986945169713 193.853403141361  L 94.9738903394256 162  L 135.117493472585 162  L 194 127.277486910995  L 194 116.507853403141  L 242.819843342037 93.9895287958115  L 290.79634464752 68.5340314136126  L 344.647519582245 0  L 375 22.5183246073298  L 369.125326370757 167.418848167539  L 361.292428198433 167.418848167539  L 375 186.020942408377  L 339.751958224543 193.853403141361  L 328.981723237598 213.434554973822  L 339.751958224543 236.931937172775  L 321.148825065274 247.701570680628  L 316.253263707572 276  L 339.751958224543 276  L 316.253263707572 345.607329842932  L 321.148825065274 359.314136125654  L 308.420365535248 374  L 290.79634464752 374  L 274.151436031332 345.607329842932  L 257.506527415144 359.314136125654  L 230.09138381201 333.858638743456  L 211.488250652742 345.607329842932  L 171.344647519582 306.44502617801  L 152.741514360313 328.96335078534  L 135.117493472585 322.109947643979  L 122 345.607329842932  L 122 328.96335078534  L 75.3916449086162 368.125654450262  L 15.6657963446475 314.277486910995  L 0 242.806282722513  Z " stroke-width="2" stroke="#d7d7d7" fill="none" transform="matrix(1 0 0 1 0 44 )" mask="url(#clip129)" />
  </g>
</svg>